<svg data-name="Layer 1" viewBox="0 0 100 100" xmlns="http://www.w3.org/2000/svg"><path d="M67.33 72.15h-4.74v-6.93h1.25a6.41 6.41 0 0 0 6.4-6.4V44.48h1.05a1 1 0 0 0 1-1v-5.69L74.94 40a.58.58 0 0 0 .37.13.56.56 0 0 0 .44-.21.57.57 0 0 0-.08-.81l-3.33-2.81v-3.86l8.82-5.22a1.72 1.72 0 1 0-1.76-3l-9.27 5.5H67a1.15 1.15 0 0 0-1.15 1.14v12.57a1.05 1.05 0 0 0 1 1v14.39a3 3 0 0 1-3 3h-1.26V22.61a2.93 2.93 0 0 0-2.93-2.93h-34a2.94 2.94 0 0 0-2.94 2.93v49.54H18v8.17h49.33ZM54.65 42.76h-24V29.28h24Z" fill="#a1a1a1" class="fill-000000"></path></svg>