<?xml version="1.0" encoding="utf-8"?>
<!-- Uploaded to: SVG Repo, www.svgrepo.com, Generator: SVG Repo Mixer Tools -->
<svg width="800px" height="800px" viewBox="0 0 1024 1024" class="icon"  version="1.1" xmlns="http://www.w3.org/2000/svg"><path d="M713.984 306.432a22.464 22.464 0 0 0-22.4-22.4h-403.2a22.528 22.528 0 0 0-22.4 22.4v595.2c0 12.288 10.112 22.4 22.4 22.4h403.2c12.288 0 22.4-10.048 22.4-22.4V592.128a22.4 22.4 0 0 0-44.864 0V481.28h0.128l-0.128 0.64a22.4 22.4 0 1 0 44.864 0l-0.128-0.64h0.128v-54.592h-0.064l0.064-0.256a22.4 22.4 0 0 0-44.864 0l0.064 0.256h-0.064v-61.376 0.064a22.4 22.4 0 1 0 44.864 0v-58.944z" fill="" /><path d="M311.424 879.168a0.64 0.64 0 0 1-0.64-0.64v-549.12a0.64 0.64 0 0 1 0.64-0.64h357.12a0.64 0.64 0 0 1 0.64 0.64v549.12a0.64 0.64 0 0 1-0.64 0.64h-357.12z" fill="#FFFFFF" /><path d="M328.64 860.032a0.64 0.64 0 0 1-0.64-0.64v-108.992a0.64 0.64 0 0 1 0.64-0.64h322.752a0.64 0.64 0 0 1 0.64 0.64v108.992a0.64 0.64 0 0 1-0.64 0.64H328.64zM328.64 726.144a0.64 0.64 0 0 1-0.64-0.64V616.512a0.64 0.64 0 0 1 0.64-0.64h322.752a0.64 0.64 0 0 1 0.64 0.64v108.992a0.64 0.64 0 0 1-0.64 0.64H328.64zM328.64 592.128a0.64 0.64 0 0 1-0.64-0.64V482.56a0.64 0.64 0 0 1 0.64-0.64h322.752a0.64 0.64 0 0 1 0.64 0.64v108.928a0.64 0.64 0 0 1-0.64 0.64H328.64z" fill="#04CF00" /><path d="M590.016 296a16 16 0 0 1-16 16H403.2a16 16 0 0 1-16-16V206.016a16 16 0 0 1 16-16h170.816a16 16 0 0 1 16 16v89.984z" fill="" /><path d="M409.6 212.416h158.016v47.168H409.6z" fill="#FFFFFF" /><path d="M489.984 212.416h77.568v47.168H489.984z" fill="" /><path d="M328.64 860.032a0.64 0.64 0 0 1-0.64-0.64v-108.992a0.64 0.64 0 0 1 0.64-0.64h94.72a0.64 0.64 0 0 1 0.64 0.64v108.992a0.64 0.64 0 0 1-0.64 0.64h-94.72zM328.64 726.144a0.64 0.64 0 0 1-0.64-0.64V616.512a0.64 0.64 0 0 1 0.64-0.64h94.72a0.64 0.64 0 0 1 0.64 0.64v108.992a0.64 0.64 0 0 1-0.64 0.64h-94.72zM328.64 592.128a0.64 0.64 0 0 1-0.64-0.64V482.56a0.64 0.64 0 0 1 0.64-0.64h94.72a0.64 0.64 0 0 1 0.64 0.64v108.928a0.64 0.64 0 0 1-0.64 0.64h-94.72z" fill="#06EA00" /></svg>